<svg xmlns="http://www.w3.org/2000/svg" viewBox="0 0 512 512">
  <rect width="512" height="512" fill="#0f172a" rx="112" />
  <path d="M256 128C185.3 128 128 185.3 128 256C128 326.7 185.3 384 256 384C326.7 384 384 326.7 384 256C384 185.3 326.7 128 256 128ZM347.3 228.7L240.7 335.3C237 339 232.3 340.7 227.3 340.7C222.3 340.7 217.7 339 214 335.3L164.7 286C157.3 278.7 157.3 266.7 164.7 259.3C172 252 184 252 191.3 259.3L227.3 295.3L320.7 202C328 194.7 340 194.7 347.3 202C354.7 209.3 354.7 221.3 347.3 228.7Z" fill="#8b5cf6" />
</svg>
